# xmcd CD database file
#
# Track frame offsets:
#	150
#	20217
#	35214
#	53769
#	77720
#	102821
#	133957
#	151299
#	189625
#	213416
#	240882
#
# Disc length: 3562 seconds
#
# Revision: 0
# Processed by: cddbd v1.5.2PL0 Copyright (c) Steve Scherf et al.
# Submitted via: CDex 1.77
#
DISCID=940de80b
DTITLE=Elizabeth Shepherd - Parkdale
DYEAR=1900
DGENRE=Jazz
TTITLE0=Mirror Living
TTITLE1=Shining Tear Of The Sun
TTITLE2=Parkdale
TTITLE3=Let Me Be
TTITLE4=Higher Ground
TTITLE5=Ling As You're Living
TTITLE6=Sicilienne
TTITLE7=Con Alma
TTITLE8=Just One Song
TTITLE9=Next Time Round
TTITLE10=Parkdale (London Session Feat. Nostalgia 77)
EXTD=
EXTT0=
EXTT1=
EXTT2=
EXTT3=
EXTT4=
EXTT5=
EXTT6=
EXTT7=
EXTT8=
EXTT9=
EXTT10=
PLAYORDER=
